<svg xmlns="http://www.w3.org/2000/svg" viewBox="0 0 1698.1 1761"><defs><style>.cls-1{fill:#07b5b5;}</style></defs><title>FyTy_Logo</title><g id="this"><path class="cls-1" d="M1800.5,664.41h4a25.72,25.72,0,0,0,3.38.85c15.83,1.75,27.93,9.63,35.52,23.37,3.39,6.13,4.5,13.51,6.65,20.32v4c-3.09,17.2-6.11,34.41-9.29,51.6q-21.11,114.1-42.29,228.21c-4.67,25.19-33.92,38.22-55.91,24.84-11.06-6.73-21.9-13.79-32.9-20.6-6.08-3.76-12.61-2.29-16.79,3.6-2.23,3.13-4.53,6.21-6.61,9.44q-36.66,57.11-73.26,114.26-44.13,68.79-88.36,137.54c-7.11,11-13.92,22.52-22.83,31.94-43.13,45.57-95.76,61.16-156.74,46.31-31.92-7.77-59-24.28-79.9-50-13.39-16.43-26.44-33.13-39.67-49.69-23-28.79-46.13-57.45-69-86.36-14.75-18.68-33.69-28.43-57.51-28.47-45.7-.07-91.41-.18-137.11-.05-22.37.07-40.81,9-55.15,26.15-6.65,8-13,16.19-19.46,24.3-28,35.12-56.45,69.91-83.91,105.46-24.8,32.1-56.24,53.13-96,61.36-9,1.86-18.28,2.52-27.42,3.74H672c-7-.81-14-1.3-21-2.47-37-6.24-68-23.29-93-51.35a151.23,151.23,0,0,1-35.77-70.67c-2-9.66-2.8-19.57-4.15-29.36v-8.1c.49-4.65.94-9.3,1.46-13.94,1.89-16.87,7.53-32.6,13.36-48.46q56.73-154.54,112.66-309.4c9.61-26.52,22.07-51.31,41.27-72.22Q744.38,678,829.56,676.69c22.09-.33,44.19,0,66.29,0q161.94,0,323.88.13c14.77,0,29.79.37,44.27,2.94,62.6,11.07,109.46,45.17,138.15,101.61,12.94,25.46,21.32,53.33,30.55,80.52,2.68,7.9,2.53,17.44,1.31,25.88-6.4,44.3-57.71,66.9-95.06,42.33-14.8-9.74-23.35-23.72-28.33-40.37-12.8-42.83-40.33-71.14-83.35-84-13.75-4.1-27.92-4.37-42.11-4.36-107.28.07-214.57-.4-321.84.47-47,.38-81.57,23.59-103.35,65-6.21,11.81-10.25,24.78-14.88,37.37-13.83,37.63-27.45,75.34-41.16,113Q675.6,1095.07,647.31,1173c-1.93,5.33-4.35,10.87-4.51,16.37-.4,13.7,9,25.74,22.06,30.12a33.09,33.09,0,0,0,36.5-10.47q5.32-6.68,10.71-13.3,52.86-65.16,105.72-130.32c15.91-19.62,34.76-35.64,57.4-47,23.18-11.63,47.4-18.34,73.72-18.08,56.51.57,113,.22,169.53.39a125,125,0,0,1,21.11,1.51c42.91,7.51,77.91,28.5,105.11,62.52l99,123.81c5,6.28,10.18,12.46,15,18.91,13.53,18.24,42.44,18.9,56.83-4.28,23-37.16,46.76-73.91,70.28-110.77q50.34-78.92,100.82-157.76c5.16-8.08,3.38-14.34-4.79-19.46-10.4-6.51-20.81-13.06-30.78-20.2a37.18,37.18,0,0,1,.11-60.83c17.66-12.61,35.47-25,53.12-37.65,49.25-35.25,98.38-70.68,147.74-105.78C1767.05,680,1780.71,666.45,1800.5,664.41Z" transform="translate(-152 -120.01)"/></g><g id="this_circle"><path class="cls-1" d="M1770.67,1481.8l.33.21s-1.6,2.69-4.8,7.62l-.47.71q-10.56,15.78-21.79,31.07l-.24.32c-43,57.73-137.08,167-284.17,249.91l-.62.35C1333,1841.48,1188.15,1881,1034,1881h-.69c-487-.37-880.94-393.45-881.31-879.31V1001c0-486.73,394.12-880.63,881.31-881h.69a881.27,881.27,0,0,1,240.23,33.16l.11,0c135,38.75,304.36,121.54,446.79,297.42.46.43.92.88,1.36,1.33q4.38,5.49,8.67,11.05a60.51,60.51,0,0,1-99.5,68.55l-.33.24q-4.86-6.19-9.85-12.28a1,1,0,0,0-.13-.16,660.22,660.22,0,0,0-53.76-59.08l-1.78-1.76a761.32,761.32,0,0,0-133.74-104.88l-.45-.28C1333.8,292.45,1200.72,239.73,1034,241h-.5C613.1,241.28,273,581.1,273,1001v.5c.27,419.13,340.27,758.23,760.5,758.5h.5a764.23,764.23,0,0,0,145.22-13.85l1.21-.23c303.89-58,455.9-276.93,483.82-321.12,1.76-2.78,3-4.87,3.8-6.18l.91-1.37a2.14,2.14,0,0,1,.13-.19c1.51-2.31,3-4.62,4.49-7a60.5,60.5,0,0,1,97.09,71.68Z" transform="translate(-152 -120.01)"/></g></svg>