<svg width="1200" height="240" viewBox="0 0 1200 240" fill="none" xmlns="http://www.w3.org/2000/svg">
<rect width="1200" height="240" fill="#07B5B5"/>
<path d="M476.227 137.477C474.432 137.466 472.699 137.165 471.028 136.574C469.369 135.983 467.881 135.023 466.562 133.693C465.244 132.364 464.199 130.602 463.426 128.409C462.665 126.216 462.284 123.523 462.284 120.33C462.295 117.398 462.631 114.778 463.29 112.472C463.96 110.153 464.915 108.187 466.153 106.574C467.403 104.96 468.898 103.733 470.636 102.892C472.375 102.04 474.324 101.614 476.483 101.614C478.813 101.614 480.869 102.068 482.653 102.977C484.438 103.875 485.869 105.097 486.949 106.642C488.04 108.188 488.699 109.92 488.926 111.841H481.648C481.364 110.625 480.767 109.67 479.858 108.977C478.949 108.284 477.824 107.938 476.483 107.938C474.21 107.938 472.483 108.926 471.301 110.903C470.131 112.881 469.534 115.568 469.511 118.966H469.75C470.273 117.932 470.977 117.051 471.864 116.324C472.761 115.585 473.778 115.023 474.915 114.636C476.062 114.239 477.273 114.04 478.545 114.04C480.614 114.04 482.455 114.528 484.068 115.506C485.682 116.472 486.955 117.801 487.886 119.494C488.818 121.187 489.284 123.125 489.284 125.307C489.284 127.67 488.733 129.773 487.631 131.614C486.54 133.455 485.011 134.898 483.045 135.943C481.091 136.977 478.818 137.489 476.227 137.477ZM476.193 131.682C477.33 131.682 478.347 131.409 479.244 130.864C480.142 130.318 480.847 129.58 481.358 128.648C481.869 127.716 482.125 126.67 482.125 125.511C482.125 124.352 481.869 123.312 481.358 122.392C480.858 121.472 480.165 120.739 479.278 120.193C478.392 119.648 477.381 119.375 476.244 119.375C475.392 119.375 474.602 119.534 473.875 119.852C473.159 120.17 472.528 120.614 471.983 121.182C471.449 121.75 471.028 122.409 470.722 123.159C470.415 123.898 470.261 124.687 470.261 125.528C470.261 126.653 470.517 127.682 471.028 128.614C471.551 129.545 472.256 130.29 473.142 130.847C474.04 131.403 475.057 131.682 476.193 131.682ZM494.517 137V131.682L506.943 120.176C508 119.153 508.886 118.233 509.602 117.415C510.33 116.597 510.881 115.795 511.256 115.011C511.631 114.216 511.818 113.358 511.818 112.438C511.818 111.415 511.585 110.534 511.119 109.795C510.653 109.045 510.017 108.472 509.21 108.074C508.403 107.665 507.489 107.46 506.466 107.46C505.398 107.46 504.466 107.676 503.67 108.108C502.875 108.54 502.261 109.159 501.83 109.966C501.398 110.773 501.182 111.733 501.182 112.847H494.176C494.176 110.562 494.693 108.58 495.727 106.898C496.761 105.216 498.21 103.915 500.074 102.994C501.938 102.074 504.085 101.614 506.517 101.614C509.017 101.614 511.193 102.057 513.045 102.943C514.909 103.818 516.358 105.034 517.392 106.591C518.426 108.148 518.943 109.932 518.943 111.943C518.943 113.261 518.682 114.562 518.159 115.847C517.648 117.131 516.733 118.557 515.415 120.125C514.097 121.682 512.239 123.551 509.841 125.733L504.744 130.727V130.966H519.403V137H494.517ZM538.439 137.767C535.507 137.756 532.984 137.034 530.871 135.602C528.768 134.17 527.149 132.097 526.013 129.381C524.888 126.665 524.331 123.398 524.342 119.58C524.342 115.773 524.905 112.528 526.03 109.847C527.166 107.165 528.786 105.125 530.888 103.727C533.001 102.318 535.518 101.614 538.439 101.614C541.359 101.614 543.871 102.318 545.973 103.727C548.087 105.136 549.712 107.182 550.848 109.864C551.984 112.534 552.547 115.773 552.536 119.58C552.536 123.409 551.967 126.682 550.831 129.398C549.706 132.114 548.092 134.187 545.99 135.619C543.888 137.051 541.371 137.767 538.439 137.767ZM538.439 131.648C540.439 131.648 542.036 130.642 543.229 128.631C544.422 126.619 545.013 123.602 545.001 119.58C545.001 116.932 544.729 114.727 544.183 112.966C543.649 111.205 542.888 109.881 541.899 108.994C540.922 108.108 539.768 107.665 538.439 107.665C536.45 107.665 534.859 108.659 533.666 110.648C532.473 112.636 531.871 115.614 531.859 119.58C531.859 122.261 532.126 124.5 532.661 126.295C533.206 128.08 533.973 129.42 534.962 130.318C535.95 131.205 537.109 131.648 538.439 131.648ZM571.196 137.477C569.401 137.466 567.668 137.165 565.997 136.574C564.338 135.983 562.849 135.023 561.531 133.693C560.213 132.364 559.168 130.602 558.395 128.409C557.634 126.216 557.253 123.523 557.253 120.33C557.264 117.398 557.599 114.778 558.259 112.472C558.929 110.153 559.884 108.187 561.122 106.574C562.372 104.96 563.866 103.733 565.605 102.892C567.344 102.04 569.293 101.614 571.452 101.614C573.781 101.614 575.838 102.068 577.622 102.977C579.406 103.875 580.838 105.097 581.918 106.642C583.009 108.188 583.668 109.92 583.895 111.841H576.616C576.332 110.625 575.736 109.67 574.827 108.977C573.918 108.284 572.793 107.938 571.452 107.938C569.179 107.938 567.452 108.926 566.27 110.903C565.099 112.881 564.503 115.568 564.48 118.966H564.719C565.241 117.932 565.946 117.051 566.832 116.324C567.73 115.585 568.747 115.023 569.884 114.636C571.031 114.239 572.241 114.04 573.514 114.04C575.582 114.04 577.423 114.528 579.037 115.506C580.651 116.472 581.923 117.801 582.855 119.494C583.787 121.187 584.253 123.125 584.253 125.307C584.253 127.67 583.702 129.773 582.599 131.614C581.509 133.455 579.98 134.898 578.014 135.943C576.06 136.977 573.787 137.489 571.196 137.477ZM571.162 131.682C572.298 131.682 573.315 131.409 574.213 130.864C575.111 130.318 575.815 129.58 576.327 128.648C576.838 127.716 577.094 126.67 577.094 125.511C577.094 124.352 576.838 123.312 576.327 122.392C575.827 121.472 575.134 120.739 574.247 120.193C573.361 119.648 572.349 119.375 571.213 119.375C570.361 119.375 569.571 119.534 568.844 119.852C568.128 120.17 567.497 120.614 566.952 121.182C566.418 121.75 565.997 122.409 565.69 123.159C565.384 123.898 565.23 124.687 565.23 125.528C565.23 126.653 565.486 127.682 565.997 128.614C566.52 129.545 567.224 130.29 568.111 130.847C569.009 131.403 570.026 131.682 571.162 131.682ZM604.673 102.091V137H597.293V109.097H597.088L589.094 114.108V107.562L597.736 102.091H604.673ZM626.658 137.767C623.726 137.756 621.203 137.034 619.089 135.602C616.987 134.17 615.368 132.097 614.232 129.381C613.107 126.665 612.55 123.398 612.561 119.58C612.561 115.773 613.124 112.528 614.249 109.847C615.385 107.165 617.004 105.125 619.107 103.727C621.22 102.318 623.737 101.614 626.658 101.614C629.578 101.614 632.089 102.318 634.192 103.727C636.305 105.136 637.93 107.182 639.067 109.864C640.203 112.534 640.766 115.773 640.754 119.58C640.754 123.409 640.186 126.682 639.05 129.398C637.925 132.114 636.311 134.187 634.209 135.619C632.107 137.051 629.589 137.767 626.658 137.767ZM626.658 131.648C628.658 131.648 630.254 130.642 631.447 128.631C632.641 126.619 633.232 123.602 633.22 119.58C633.22 116.932 632.947 114.727 632.402 112.966C631.868 111.205 631.107 109.881 630.118 108.994C629.141 108.108 627.987 107.665 626.658 107.665C624.669 107.665 623.078 108.659 621.885 110.648C620.692 112.636 620.089 115.614 620.078 119.58C620.078 122.261 620.345 124.5 620.879 126.295C621.425 128.08 622.192 129.42 623.18 130.318C624.169 131.205 625.328 131.648 626.658 131.648ZM659.04 137.477C656.415 137.477 654.08 137.051 652.034 136.199C650 135.335 648.403 134.159 647.244 132.67C646.085 131.182 645.506 129.494 645.506 127.608C645.506 126.153 645.835 124.818 646.494 123.602C647.165 122.375 648.074 121.358 649.222 120.551C650.369 119.733 651.653 119.21 653.074 118.983V118.744C651.21 118.369 649.699 117.466 648.54 116.034C647.381 114.591 646.801 112.915 646.801 111.006C646.801 109.199 647.33 107.591 648.386 106.182C649.443 104.761 650.892 103.648 652.733 102.841C654.585 102.023 656.688 101.614 659.04 101.614C661.392 101.614 663.489 102.023 665.33 102.841C667.182 103.659 668.636 104.778 669.693 106.199C670.75 107.608 671.284 109.21 671.295 111.006C671.284 112.926 670.693 114.602 669.523 116.034C668.352 117.466 666.852 118.369 665.023 118.744V118.983C666.42 119.21 667.688 119.733 668.824 120.551C669.972 121.358 670.881 122.375 671.551 123.602C672.233 124.818 672.58 126.153 672.591 127.608C672.58 129.494 671.994 131.182 670.835 132.67C669.676 134.159 668.074 135.335 666.028 136.199C663.994 137.051 661.665 137.477 659.04 137.477ZM659.04 132.057C660.21 132.057 661.233 131.847 662.108 131.426C662.983 130.994 663.665 130.403 664.153 129.653C664.653 128.892 664.903 128.017 664.903 127.028C664.903 126.017 664.648 125.125 664.136 124.352C663.625 123.568 662.932 122.955 662.057 122.511C661.182 122.057 660.176 121.83 659.04 121.83C657.915 121.83 656.909 122.057 656.023 122.511C655.136 122.955 654.438 123.568 653.926 124.352C653.426 125.125 653.176 126.017 653.176 127.028C653.176 128.017 653.42 128.892 653.909 129.653C654.398 130.403 655.085 130.994 655.972 131.426C656.858 131.847 657.881 132.057 659.04 132.057ZM659.04 116.46C660.017 116.46 660.886 116.261 661.648 115.864C662.409 115.466 663.006 114.915 663.438 114.21C663.869 113.506 664.085 112.693 664.085 111.773C664.085 110.864 663.869 110.068 663.438 109.386C663.006 108.693 662.415 108.153 661.665 107.767C660.915 107.369 660.04 107.17 659.04 107.17C658.051 107.17 657.176 107.369 656.415 107.767C655.653 108.153 655.057 108.693 654.625 109.386C654.205 110.068 653.994 110.864 653.994 111.773C653.994 112.693 654.21 113.506 654.642 114.21C655.074 114.915 655.67 115.466 656.432 115.864C657.193 116.261 658.062 116.46 659.04 116.46ZM691.439 137.767C688.507 137.756 685.984 137.034 683.871 135.602C681.768 134.17 680.149 132.097 679.013 129.381C677.888 126.665 677.331 123.398 677.342 119.58C677.342 115.773 677.905 112.528 679.03 109.847C680.166 107.165 681.786 105.125 683.888 103.727C686.001 102.318 688.518 101.614 691.439 101.614C694.359 101.614 696.871 102.318 698.973 103.727C701.087 105.136 702.712 107.182 703.848 109.864C704.984 112.534 705.547 115.773 705.536 119.58C705.536 123.409 704.967 126.682 703.831 129.398C702.706 132.114 701.092 134.187 698.99 135.619C696.888 137.051 694.371 137.767 691.439 137.767ZM691.439 131.648C693.439 131.648 695.036 130.642 696.229 128.631C697.422 126.619 698.013 123.602 698.001 119.58C698.001 116.932 697.729 114.727 697.183 112.966C696.649 111.205 695.888 109.881 694.899 108.994C693.922 108.108 692.768 107.665 691.439 107.665C689.45 107.665 687.859 108.659 686.666 110.648C685.473 112.636 684.871 115.614 684.859 119.58C684.859 122.261 685.126 124.5 685.661 126.295C686.206 128.08 686.973 129.42 687.962 130.318C688.95 131.205 690.109 131.648 691.439 131.648ZM710.27 130.864V125.051L724.844 102.091H729.855V110.136H726.889L717.702 124.676V124.949H738.412V130.864H710.27ZM727.026 137V129.091L727.162 126.517V102.091H734.082V137H727.026Z" fill="white"/>
</svg>
