<svg width="1200" height="240" viewBox="0 0 1200 240" fill="none" xmlns="http://www.w3.org/2000/svg">
<rect width="1200" height="240" fill="#07B5B5"/>
<path d="M518.336 137V119.912C518.336 118.376 517.92 117.272 517.088 116.6C516.256 115.928 514.976 115.592 513.248 115.592C511.584 115.592 509.952 115.848 508.352 116.36C506.784 116.84 505.424 117.416 504.272 118.088V112.136C505.2 111.688 506.512 111.24 508.208 110.792C509.904 110.312 511.856 110.072 514.064 110.072C515.76 110.072 517.28 110.28 518.624 110.696C520 111.112 520.992 111.928 521.6 113.144C522.944 113.56 523.904 114.376 524.48 115.592C525.088 116.776 525.392 118.312 525.392 120.2V137H518.336ZM510.464 137.48C507.712 137.48 505.584 136.824 504.08 135.512C502.608 134.2 501.872 132.36 501.872 129.992C501.872 127.432 502.784 125.384 504.608 123.848C506.464 122.312 509.376 121.384 513.344 121.064L519.488 120.584V125.768L514.16 126.296C512.24 126.488 510.896 126.872 510.128 127.448C509.392 128.024 509.024 128.792 509.024 129.752C509.024 130.712 509.328 131.432 509.936 131.912C510.576 132.392 511.392 132.632 512.384 132.632C512.768 132.632 513.152 132.6 513.536 132.536C513.92 132.44 514.272 132.344 514.592 132.248L515.216 136.76C514.608 136.984 513.888 137.16 513.056 137.288C512.224 137.416 511.36 137.48 510.464 137.48ZM521.456 115.928L517.52 112.616C518.64 112.232 519.52 111.752 520.16 111.176C520.8 110.568 521.136 109.832 521.168 108.968H527.456C527.456 109.96 527.248 110.92 526.832 111.848C526.448 112.744 525.808 113.544 524.912 114.248C524.048 114.952 522.896 115.512 521.456 115.928ZM539.243 137.624C537.611 137.624 536.075 137.432 534.635 137.048C533.195 136.696 531.851 136.184 530.603 135.512L532.523 130.28C533.227 130.696 534.075 131.064 535.067 131.384C536.059 131.704 537.035 131.864 537.995 131.864C539.787 131.864 541.211 131.192 542.267 129.848C543.323 128.472 543.851 126.424 543.851 123.704C543.851 121.144 543.323 119.192 542.267 117.848C541.211 116.504 539.563 115.832 537.323 115.832C536.267 115.832 535.179 115.992 534.059 116.312C532.939 116.6 532.011 116.968 531.275 117.416V111.512C532.267 111.064 533.387 110.712 534.635 110.456C535.883 110.2 537.211 110.072 538.619 110.072C541.563 110.072 543.963 110.616 545.819 111.704C547.675 112.792 549.035 114.36 549.899 116.408C550.763 118.424 551.195 120.856 551.195 123.704C551.195 128.248 550.155 131.704 548.075 134.072C545.995 136.44 543.051 137.624 539.243 137.624ZM543.856 107.048C542.352 107.048 541.168 106.824 540.304 106.376C539.44 105.928 538.832 105.368 538.48 104.696C538.096 103.992 537.904 103.256 537.904 102.488C537.904 101.944 537.984 101.368 538.144 100.76C538.304 100.12 538.544 99.528 538.864 98.984L544.096 99.656C544.032 99.88 543.984 100.12 543.952 100.376C543.888 100.6 543.856 100.808 543.856 101C543.856 101.448 544 101.8 544.288 102.056C544.544 102.28 544.992 102.392 545.632 102.392H555.952V107.048H543.856ZM571.867 137V119.912C571.867 118.376 571.451 117.272 570.619 116.6C569.787 115.928 568.507 115.592 566.779 115.592C565.115 115.592 563.483 115.848 561.883 116.36C560.315 116.84 558.955 117.416 557.803 118.088V112.136C558.731 111.688 560.043 111.24 561.739 110.792C563.435 110.312 565.387 110.072 567.595 110.072C569.291 110.072 570.811 110.28 572.155 110.696C573.531 111.112 574.523 111.928 575.131 113.144C576.475 113.56 577.435 114.376 578.011 115.592C578.619 116.776 578.923 118.312 578.923 120.2V137H571.867ZM563.995 137.48C561.243 137.48 559.115 136.824 557.611 135.512C556.139 134.2 555.403 132.36 555.403 129.992C555.403 127.432 556.315 125.384 558.139 123.848C559.995 122.312 562.907 121.384 566.875 121.064L573.019 120.584V125.768L567.691 126.296C565.771 126.488 564.427 126.872 563.659 127.448C562.923 128.024 562.555 128.792 562.555 129.752C562.555 130.712 562.859 131.432 563.467 131.912C564.107 132.392 564.923 132.632 565.915 132.632C566.299 132.632 566.683 132.6 567.067 132.536C567.451 132.44 567.803 132.344 568.123 132.248L568.747 136.76C568.139 136.984 567.419 137.16 566.587 137.288C565.755 137.416 564.891 137.48 563.995 137.48ZM574.987 115.928L571.051 112.616C572.171 112.232 573.051 111.752 573.691 111.176C574.331 110.568 574.667 109.832 574.699 108.968H580.987C580.987 109.96 580.779 110.92 580.363 111.848C579.979 112.744 579.339 113.544 578.443 114.248C577.579 114.952 576.427 115.512 574.987 115.928ZM595.222 137.48C592.63 137.48 590.566 136.92 589.03 135.8C587.494 134.648 586.39 133.08 585.718 131.096C585.046 129.08 584.71 126.776 584.71 124.184C584.71 121.4 585.014 119.096 585.622 117.272C586.262 115.416 587.158 113.976 588.31 112.952C589.462 111.896 590.822 111.16 592.39 110.744C593.99 110.296 595.734 110.072 597.622 110.072C600.502 110.072 602.806 110.472 604.534 111.272C606.262 112.072 607.51 113.208 608.278 114.68C609.078 116.152 609.478 117.88 609.478 119.864V137H602.278V120.44C602.278 118.936 601.91 117.8 601.174 117.032C600.47 116.232 599.286 115.832 597.622 115.832C596.502 115.832 595.51 116.072 594.646 116.552C593.814 117 593.158 117.816 592.678 119C592.23 120.184 592.006 121.88 592.006 124.088C592.006 125.592 592.15 126.92 592.438 128.072C592.726 129.224 593.19 130.12 593.83 130.76C594.502 131.4 595.398 131.72 596.518 131.72C596.87 131.72 597.206 131.704 597.526 131.672C597.878 131.608 598.182 131.544 598.438 131.48L599.11 136.856C598.598 137.08 597.974 137.24 597.238 137.336C596.534 137.432 595.862 137.48 595.222 137.48ZM586.396 107.048V104.024L591.244 102.008H608.38V107.048H586.396ZM602.236 104.12V98.696H608.38V104.12H602.236ZM616.188 137V121.4C616.188 117.72 617.164 114.92 619.116 113C621.068 111.048 624.156 110.072 628.38 110.072C632.636 110.072 635.708 111.048 637.596 113C639.516 114.92 640.476 117.72 640.476 121.4V137H633.324V121.304C633.324 119.608 632.924 118.28 632.124 117.32C631.356 116.328 630.076 115.832 628.284 115.832C626.524 115.832 625.244 116.328 624.444 117.32C623.676 118.28 623.292 119.608 623.292 121.304V125.48L623.436 125.528C624.044 124.28 624.764 123.464 625.596 123.08C626.46 122.664 627.628 122.456 629.1 122.456H630.204V127.832H629.1C627.5 127.832 626.284 128.104 625.452 128.648C624.62 129.192 624.044 129.912 623.724 130.808C623.436 131.672 623.292 132.648 623.292 133.736V137H616.188ZM656.243 137.624C654.355 137.624 652.451 137.416 650.531 137C648.643 136.584 646.963 135.992 645.491 135.224L647.507 129.512C648.147 129.864 648.915 130.232 649.811 130.616C650.707 131 651.683 131.32 652.739 131.576C653.795 131.832 654.867 131.96 655.955 131.96C657.235 131.96 658.195 131.784 658.835 131.432C659.507 131.048 659.843 130.472 659.843 129.704C659.843 129.128 659.619 128.664 659.171 128.312C658.755 127.928 658.131 127.576 657.299 127.256C656.467 126.904 655.475 126.536 654.323 126.152C652.627 125.544 651.171 124.888 649.955 124.184C648.739 123.48 647.795 122.616 647.123 121.592C646.483 120.568 646.163 119.288 646.163 117.752C646.163 115.992 646.611 114.552 647.507 113.432C648.403 112.312 649.667 111.48 651.299 110.936C652.931 110.36 654.835 110.072 657.011 110.072C658.803 110.072 660.419 110.216 661.859 110.504C663.299 110.792 664.419 111.16 665.219 111.608V117.272C664.675 117.016 663.955 116.76 663.059 116.504C662.195 116.248 661.251 116.04 660.227 115.88C659.235 115.688 658.275 115.592 657.347 115.592C656.035 115.592 655.043 115.768 654.371 116.12C653.699 116.472 653.363 116.968 653.363 117.608C653.363 118.12 653.587 118.552 654.035 118.904C654.515 119.256 655.203 119.592 656.099 119.912C656.995 120.2 658.067 120.568 659.315 121.016C660.979 121.592 662.387 122.232 663.539 122.936C664.691 123.64 665.555 124.504 666.131 125.528C666.739 126.552 667.043 127.816 667.043 129.32C667.043 130.76 666.707 132.12 666.035 133.4C665.395 134.648 664.291 135.672 662.723 136.472C661.155 137.24 658.995 137.624 656.243 137.624ZM658.466 107.048C656.962 107.048 655.778 106.824 654.914 106.376C654.05 105.928 653.442 105.368 653.09 104.696C652.706 103.992 652.514 103.256 652.514 102.488C652.514 101.944 652.594 101.368 652.754 100.76C652.914 100.12 653.154 99.528 653.474 98.984L658.706 99.656C658.642 99.88 658.594 100.12 658.562 100.376C658.498 100.6 658.466 100.808 658.466 101C658.466 101.448 658.61 101.8 658.898 102.056C659.154 102.28 659.602 102.392 660.242 102.392H670.562V107.048H658.466ZM683.919 137.624C679.759 137.624 676.735 136.664 674.847 134.744C672.991 132.792 672.063 129.976 672.063 126.296V110.696H679.263V126.68C679.263 128.376 679.631 129.672 680.367 130.568C681.135 131.432 682.319 131.864 683.919 131.864C685.519 131.864 686.687 131.432 687.423 130.568C688.191 129.672 688.575 128.376 688.575 126.68V110.696H695.775V126.296C695.775 129.976 694.831 132.792 692.943 134.744C691.087 136.664 688.079 137.624 683.919 137.624Z" fill="white"/>
</svg>
