<svg width="1200" height="240" viewBox="0 0 1200 240" fill="none" xmlns="http://www.w3.org/2000/svg">
<rect width="1200" height="240" fill="#07B5B5"/>
<path d="M470.752 137.48C469.312 137.48 468.096 137.256 467.104 136.808C466.112 136.36 465.36 135.688 464.848 134.792C464.336 133.864 464.08 132.712 464.08 131.336V113.576C464.08 112.744 464.128 112.056 464.224 111.512C464.352 110.968 464.576 110.456 464.896 109.976C465.216 109.464 465.68 108.856 466.288 108.152C466.928 107.416 467.456 106.776 467.872 106.232C468.288 105.688 468.496 105.064 468.496 104.36C468.496 103.624 468.224 103.048 467.68 102.632C467.168 102.184 466.352 101.96 465.232 101.96C464.368 101.96 463.6 102.072 462.928 102.296C462.256 102.52 461.648 102.808 461.104 103.16V97.832C461.552 97.576 462.352 97.288 463.504 96.968C464.688 96.616 466.112 96.44 467.776 96.44C470.304 96.44 472.304 96.968 473.776 98.024C475.248 99.08 475.984 100.664 475.984 102.776C475.984 104.056 475.728 105.176 475.216 106.136C474.736 107.096 474.224 107.944 473.68 108.68C473.168 109.384 472.72 109.976 472.336 110.456C471.984 110.904 471.712 111.368 471.52 111.848C471.36 112.328 471.28 112.968 471.28 113.768V130.472C471.28 131.08 471.408 131.528 471.664 131.816C471.952 132.104 472.368 132.248 472.912 132.248C473.168 132.248 473.44 132.216 473.728 132.152C474.048 132.088 474.336 132.008 474.592 131.912L475.264 136.52C474.656 136.84 473.968 137.08 473.2 137.24C472.432 137.4 471.616 137.48 470.752 137.48ZM480.011 137V110.696H487.115V120.536H487.307L495.467 110.696H503.387V110.936L487.115 128.984V137H480.011ZM496.091 137V128.312C496.091 126.616 495.595 125.4 494.603 124.664C493.643 123.896 492.235 123.512 490.379 123.512L494.603 118.52C496.523 118.52 498.123 118.904 499.403 119.672C500.683 120.44 501.643 121.48 502.283 122.792C502.955 124.072 503.291 125.544 503.291 127.208V137H496.091ZM487.415 107.096V104.696C487.863 104.568 488.359 104.392 488.903 104.168C489.447 103.944 489.927 103.64 490.343 103.256C490.759 102.872 490.967 102.392 490.967 101.816C490.967 101.368 490.839 101.016 490.583 100.76C490.327 100.504 490.007 100.376 489.623 100.376C489.367 100.376 489.095 100.424 488.807 100.52C488.519 100.616 488.263 100.712 488.039 100.808L487.127 97.592C487.767 97.048 488.567 96.696 489.527 96.536C490.455 96.344 491.239 96.248 491.879 96.248C493.319 96.248 494.455 96.584 495.287 97.256C496.087 97.928 496.487 98.92 496.487 100.232C496.487 100.936 496.311 101.592 495.959 102.2C495.575 102.808 494.999 103.304 494.231 103.688L494.039 102.44H503.111V107.096H487.415ZM509.678 137V116.552C509.678 114.92 509.95 113.64 510.494 112.712C511.07 111.784 511.854 111.144 512.846 110.792C513.838 110.408 514.974 110.216 516.254 110.216C517.15 110.216 517.95 110.312 518.654 110.504C519.358 110.664 519.934 110.856 520.382 111.08L519.422 115.784C519.166 115.72 518.91 115.672 518.654 115.64C518.398 115.608 518.19 115.592 518.03 115.592C517.422 115.592 516.99 115.752 516.734 116.072C516.51 116.392 516.398 116.856 516.398 117.464V121.928C516.398 122.728 516.366 123.688 516.302 124.808C516.238 125.896 516.126 127.272 515.966 128.936H516.206C516.846 127.432 517.406 126.232 517.886 125.336C518.398 124.408 518.846 123.592 519.23 122.888L521.006 119.672H523.694L525.47 122.888C525.918 123.656 526.302 124.36 526.622 125C526.942 125.608 527.246 126.216 527.534 126.824C527.822 127.432 528.142 128.136 528.494 128.936H528.734C528.574 127.272 528.462 125.896 528.398 124.808C528.334 123.688 528.302 122.728 528.302 121.928V110.696H535.022V137H528.158L522.446 126.536H522.254L516.542 137H509.678ZM557.661 137.48C555.389 137.48 553.549 137.048 552.141 136.184C550.765 135.32 549.789 134.216 549.213 132.872H548.829L548.061 137H542.589V110.696H549.789V123.272C549.789 125.096 549.997 126.6 550.413 127.784C550.829 128.936 551.437 129.8 552.237 130.376C553.037 130.952 553.997 131.24 555.117 131.24C556.461 131.24 557.485 130.84 558.189 130.04C558.893 129.24 559.245 127.96 559.245 126.2V110.696H566.445V127.784C566.445 129.864 566.109 131.624 565.437 133.064C564.797 134.504 563.821 135.608 562.509 136.376C561.197 137.112 559.581 137.48 557.661 137.48ZM575.348 137V125.96H572.612V121.544H581.828V131.528H582.164C583.22 131.528 584.116 131.24 584.852 130.664C585.62 130.088 586.196 129.24 586.58 128.12C586.964 126.968 587.156 125.528 587.156 123.8C587.156 121.816 586.868 120.248 586.292 119.096C585.748 117.912 584.932 117.064 583.844 116.552C582.756 116.04 581.412 115.784 579.812 115.784C578.148 115.784 576.644 116.024 575.3 116.504C573.956 116.952 572.756 117.496 571.7 118.136V112.136C572.756 111.592 574.084 111.112 575.684 110.696C577.284 110.28 579.124 110.072 581.204 110.072C584.308 110.072 586.82 110.568 588.74 111.56C590.692 112.552 592.132 114.056 593.06 116.072C593.988 118.088 594.452 120.616 594.452 123.656C594.452 126.504 594.02 128.936 593.156 130.952C592.324 132.936 590.948 134.44 589.028 135.464C587.14 136.488 584.612 137 581.444 137H575.348ZM611.857 137.624C607.697 137.624 604.673 136.664 602.785 134.744C600.929 132.792 600.001 129.976 600.001 126.296V110.696H607.201V126.68C607.201 128.376 607.569 129.672 608.305 130.568C609.073 131.432 610.257 131.864 611.857 131.864C613.457 131.864 614.625 131.432 615.361 130.568C616.129 129.672 616.513 128.376 616.513 126.68V110.696H623.713V126.296C623.713 129.976 622.769 132.792 620.881 134.744C619.025 136.664 616.017 137.624 611.857 137.624ZM639.879 137.48C637.287 137.48 635.223 136.92 633.687 135.8C632.151 134.648 631.047 133.08 630.375 131.096C629.703 129.08 629.367 126.776 629.367 124.184C629.367 121.4 629.671 119.096 630.279 117.272C630.919 115.416 631.815 113.976 632.967 112.952C634.119 111.896 635.479 111.16 637.047 110.744C638.647 110.296 640.391 110.072 642.279 110.072C645.159 110.072 647.463 110.472 649.191 111.272C650.919 112.072 652.167 113.208 652.935 114.68C653.735 116.152 654.135 117.88 654.135 119.864V137H646.935V120.44C646.935 118.936 646.567 117.8 645.831 117.032C645.127 116.232 643.943 115.832 642.279 115.832C641.159 115.832 640.167 116.072 639.303 116.552C638.471 117 637.815 117.816 637.335 119C636.887 120.184 636.663 121.88 636.663 124.088C636.663 125.592 636.807 126.92 637.095 128.072C637.383 129.224 637.847 130.12 638.487 130.76C639.159 131.4 640.055 131.72 641.174 131.72C641.527 131.72 641.863 131.704 642.183 131.672C642.535 131.608 642.839 131.544 643.095 131.48L643.767 136.856C643.255 137.08 642.631 137.24 641.895 137.336C641.191 137.432 640.519 137.48 639.879 137.48ZM638.634 107.096V104.696C639.082 104.568 639.578 104.392 640.122 104.168C640.666 103.944 641.146 103.64 641.562 103.256C641.978 102.872 642.186 102.392 642.186 101.816C642.186 101.368 642.058 101.016 641.802 100.76C641.546 100.504 641.226 100.376 640.842 100.376C640.586 100.376 640.314 100.424 640.026 100.52C639.738 100.616 639.482 100.712 639.258 100.808L638.346 97.592C638.986 97.048 639.786 96.696 640.746 96.536C641.674 96.344 642.458 96.248 643.098 96.248C644.538 96.248 645.674 96.584 646.506 97.256C647.306 97.928 647.706 98.92 647.706 100.232C647.706 100.936 647.53 101.592 647.178 102.2C646.794 102.808 646.218 103.304 645.45 103.688L645.258 102.44H654.33V107.096H638.634ZM667.852 137.624C666.22 137.624 664.684 137.432 663.244 137.048C661.804 136.696 660.46 136.184 659.212 135.512L661.132 130.28C661.836 130.696 662.684 131.064 663.676 131.384C664.668 131.704 665.644 131.864 666.604 131.864C668.396 131.864 669.82 131.192 670.876 129.848C671.932 128.472 672.46 126.424 672.46 123.704C672.46 121.144 671.932 119.192 670.876 117.848C669.82 116.504 668.172 115.832 665.932 115.832C664.876 115.832 663.788 115.992 662.668 116.312C661.548 116.6 660.62 116.968 659.884 117.416V111.512C660.876 111.064 661.996 110.712 663.244 110.456C664.492 110.2 665.82 110.072 667.228 110.072C670.172 110.072 672.572 110.616 674.428 111.704C676.284 112.792 677.644 114.36 678.508 116.408C679.372 118.424 679.804 120.856 679.804 123.704C679.804 128.248 678.764 131.704 676.684 134.072C674.604 136.44 671.66 137.624 667.852 137.624ZM696.637 137.624C693.757 137.624 691.453 137.288 689.725 136.616C687.997 135.912 686.733 134.936 685.933 133.688C685.165 132.44 684.781 131 684.781 129.368C684.781 127.96 684.989 126.824 685.405 125.96C685.853 125.096 686.413 124.44 687.085 123.992C687.789 123.512 688.493 123.192 689.197 123.032V122.744C688.461 122.488 687.757 122.136 687.085 121.688C686.413 121.24 685.853 120.632 685.405 119.864C684.989 119.096 684.781 118.136 684.781 116.984C684.781 115.8 685.053 114.696 685.597 113.672C686.173 112.648 687.085 111.832 688.333 111.224C689.581 110.584 691.229 110.264 693.277 110.264C694.269 110.264 695.229 110.344 696.157 110.504C697.085 110.632 697.805 110.824 698.317 111.08L697.213 115.928C696.957 115.864 696.605 115.8 696.157 115.736C695.741 115.64 695.309 115.592 694.861 115.592C693.869 115.592 693.133 115.832 692.653 116.312C692.173 116.76 691.933 117.352 691.933 118.088C691.933 118.856 692.141 119.448 692.557 119.864C692.973 120.28 693.501 120.568 694.141 120.728C694.813 120.888 695.501 120.968 696.205 120.968H697.213V125.432H696.205C694.829 125.432 693.789 125.672 693.085 126.152C692.413 126.632 692.077 127.416 692.077 128.504C692.077 129.08 692.205 129.656 692.461 130.232C692.749 130.776 693.229 131.24 693.901 131.624C694.573 131.976 695.533 132.152 696.781 132.152C697.965 132.152 698.893 131.976 699.565 131.624C700.237 131.272 700.717 130.808 701.005 130.232C701.293 129.624 701.437 128.952 701.437 128.216V110.696H708.637V127.976C708.637 131.272 707.661 133.704 705.709 135.272C703.789 136.84 700.765 137.624 696.637 137.624ZM715.36 137V121.4C715.36 117.72 716.336 114.92 718.288 113C720.24 111.048 723.328 110.072 727.552 110.072C731.808 110.072 734.88 111.048 736.768 113C738.688 114.92 739.648 117.72 739.648 121.4V137H732.496V121.304C732.496 119.608 732.096 118.28 731.296 117.32C730.528 116.328 729.248 115.832 727.456 115.832C725.696 115.832 724.416 116.328 723.616 117.32C722.848 118.28 722.464 119.608 722.464 121.304V125.48L722.608 125.528C723.216 124.28 723.936 123.464 724.768 123.08C725.632 122.664 726.8 122.456 728.272 122.456H729.376V127.832H728.272C726.672 127.832 725.456 128.104 724.624 128.648C723.792 129.192 723.216 129.912 722.896 130.808C722.608 131.672 722.464 132.648 722.464 133.736V137H715.36ZM755.415 137.624C753.527 137.624 751.623 137.416 749.703 137C747.815 136.584 746.135 135.992 744.663 135.224L746.679 129.512C747.319 129.864 748.087 130.232 748.983 130.616C749.879 131 750.855 131.32 751.911 131.576C752.967 131.832 754.039 131.96 755.127 131.96C756.407 131.96 757.367 131.784 758.007 131.432C758.679 131.048 759.015 130.472 759.015 129.704C759.015 129.128 758.791 128.664 758.343 128.312C757.927 127.928 757.303 127.576 756.471 127.256C755.639 126.904 754.647 126.536 753.495 126.152C751.799 125.544 750.343 124.888 749.127 124.184C747.911 123.48 746.967 122.616 746.295 121.592C745.655 120.568 745.335 119.288 745.335 117.752C745.335 115.992 745.783 114.552 746.679 113.432C747.575 112.312 748.839 111.48 750.471 110.936C752.103 110.36 754.007 110.072 756.183 110.072C757.975 110.072 759.591 110.216 761.031 110.504C762.471 110.792 763.591 111.16 764.391 111.608V117.272C763.847 117.016 763.127 116.76 762.231 116.504C761.367 116.248 760.423 116.04 759.399 115.88C758.407 115.688 757.447 115.592 756.519 115.592C755.207 115.592 754.215 115.768 753.543 116.12C752.871 116.472 752.535 116.968 752.535 117.608C752.535 118.12 752.759 118.552 753.207 118.904C753.687 119.256 754.375 119.592 755.271 119.912C756.167 120.2 757.239 120.568 758.487 121.016C760.151 121.592 761.559 122.232 762.711 122.936C763.863 123.64 764.727 124.504 765.303 125.528C765.911 126.552 766.215 127.816 766.215 129.32C766.215 130.76 765.879 132.12 765.207 133.4C764.567 134.648 763.463 135.672 761.895 136.472C760.327 137.24 758.167 137.624 755.415 137.624ZM757.637 107.048C756.133 107.048 754.949 106.824 754.085 106.376C753.221 105.928 752.613 105.368 752.261 104.696C751.877 103.992 751.685 103.256 751.685 102.488C751.685 101.944 751.765 101.368 751.925 100.76C752.085 100.12 752.325 99.528 752.645 98.984L757.877 99.656C757.813 99.88 757.765 100.12 757.733 100.376C757.669 100.6 757.637 100.808 757.637 101C757.637 101.448 757.781 101.8 758.069 102.056C758.325 102.28 758.773 102.392 759.413 102.392H769.734V107.048H757.637ZM783.091 137.624C778.931 137.624 775.907 136.664 774.019 134.744C772.163 132.792 771.235 129.976 771.235 126.296V110.696H778.435V126.68C778.435 128.376 778.803 129.672 779.539 130.568C780.307 131.432 781.491 131.864 783.091 131.864C784.691 131.864 785.859 131.432 786.595 130.568C787.363 129.672 787.747 128.376 787.747 126.68V110.696H794.947V126.296C794.947 129.976 794.003 132.792 792.115 134.744C790.259 136.664 787.251 137.624 783.091 137.624Z" fill="white"/>
</svg>
